/vscmnt/brussel_pixiu_data/_data_brussel/112/vsc11236/PredSimResults/SUBJ06opt3D/expIG/worker_06.mot
version=1
nRows=10
nColumns=50
inDegrees=yes
endheader
                time	         pelvis_tilt	         pelvis_list	     pelvis_rotation	           pelvis_tx	           pelvis_ty	           pelvis_tz	       hip_flexion_r	     hip_adduction_r	      hip_rotation_r	        knee_angle_r	       ankle_angle_r	         mtp_angle_r	       hip_flexion_l	     hip_adduction_l	      hip_rotation_l	        knee_angle_l	       ankle_angle_l	         mtp_angle_l	    lumbar_extension	      lumbar_bending	     lumbar_rotation	 ercspn_r/activation	 intobl_r/activation	 extobl_r/activation	    abd_r/activation	    add_r/activation	hamstrings_r/activation	bifemsh_r/activation	glut_max_r/activation	iliopsoas_r/activation	rect_fem_r/activation	  vasti_r/activation	gastroc_r/activation	 soleus_r/activation	tib_ant_r/activation	 ercspn_l/activation	 intobl_l/activation	 extobl_l/activation	    abd_l/activation	    add_l/activation	hamstrings_l/activation	bifemsh_l/activation	glut_max_l/activation	iliopsoas_l/activation	rect_fem_l/activation	  vasti_l/activation	gastroc_l/activation	 soleus_l/activation	tib_ant_l/activation	
          0.61912852	         -4.99196293	          1.57712020	         -5.60813486	          0.68104137	          0.93378997	          0.01130256	        -10.77879842	         -1.80965904	         -8.00016838	        -11.44674178	          8.31554306	         32.91928780	         31.22308447	         -0.81502076	         -9.16685937	         -9.99520741	          0.02154700	          0.22035433	         -5.78650195	         -0.22448364	          7.93849499	          0.12965323	          0.01000045	          0.01000111	          0.07866460	          0.01000597	          0.01000748	          0.19767014	          0.01730229	          0.42099567	          0.02127393	          0.01000234	          0.23098910	          0.35352849	          0.02117995	          0.18807058	          0.18820730	          0.01000274	          0.01000072	          0.31699351	          0.04855967	          0.03296979	          0.01845284	          0.12204913	          0.01245284	          0.02425054	          0.01001052	          0.01000106	          0.50774741	
          0.63151109	         -5.07783153	          1.52406752	         -5.61059786	          0.69772339	          0.93207199	          0.01054738	        -11.21958458	         -1.95082701	         -8.43645014	        -12.28396450	          7.30141374	         34.74931658	         31.16213290	         -0.71569746	         -9.33982286	        -11.19511382	         -0.35376425	          0.22740887	         -5.43558044	         -0.56766758	          8.41165428	          0.15199602	          0.01000051	          0.01000097	          0.06520744	          0.01000855	          0.01001746	          0.16394515	          0.01455214	          0.40828562	          0.01763744	          0.01000747	          0.19538461	          0.33023023	          0.01755671	          0.16960319	          0.15601161	          0.01000308	          0.01000018	          0.37208350	          0.05210490	          0.02733731	          0.04115865	          0.10117014	          0.01032609	          0.05020582	          0.01000451	          0.01456104	          0.51850817	
          0.64389366	         -5.14132609	          1.51281710	         -5.58950837	          0.71486819	          0.93053506	          0.00975646	        -11.54533990	         -2.16831871	         -8.86913945	        -13.40333631	          6.16894644	         36.59725785	         30.85513662	         -0.64213674	         -9.30884610	        -12.38362128	         -0.62951023	          0.19457070	         -5.05343899	         -0.97095667	          8.84393833	          0.13753847	          0.01000038	          0.01000162	          0.05405238	          0.01000639	          0.01002909	          0.17425764	          0.01206327	          0.41663069	          0.01462180	          0.01000168	          0.16196056	          0.30313454	          0.01455332	          0.14059031	          0.12932558	          0.01000220	          0.02982893	          0.30843213	          0.05997294	          0.02267153	          0.03412090	          0.08386292	          0.01000183	          0.06537864	          0.01208044	          0.01207049	          0.56933991	
          0.65627623	         -5.18697260	          1.53400280	         -5.53178416	          0.73221873	          0.92927731	          0.00883755	        -11.65309011	         -2.46670484	         -9.30862368	        -14.95335094	          4.90184479	         38.45364867	         30.38000647	         -0.54034925	         -9.40117398	        -13.33744662	         -0.95765241	          0.18211127	         -4.67185428	         -1.41182774	          9.21903952	          0.15181461	          0.01000028	          0.01000125	          0.04480562	          0.01000263	          0.01000530	          0.18253380	          0.01000071	          0.37204579	          0.01212229	          0.01000065	          0.13425401	          0.26478401	          0.01206375	          0.14478301	          0.10720202	          0.01000198	          0.07743344	          0.25567330	          0.06842786	          0.01881116	          0.06553067	          0.06951646	          0.01000156	          0.09756899	          0.01001455	          0.01000574	          0.62469677	
          0.66865880	         -5.21704182	          1.57965324	         -5.43699666	          0.74950321	          0.92847356	          0.00779119	        -11.45565709	         -2.84992565	         -9.75822129	        -17.04102131	          3.44195678	         40.27840102	         29.85014901	         -0.41536630	         -9.59192831	        -14.22145625	         -1.18363079	          0.14392361	         -4.32021112	         -1.87974522	          9.53008987	          0.19644111	          0.01000038	          0.01000137	          0.03714070	          0.01000339	          0.01001372	          0.15134453	          0.01000078	          0.30840100	          0.01005068	          0.01000058	          0.11128716	          0.21948746	          0.01000035	          0.13989752	          0.08886296	          0.01000205	          0.12905941	          0.21195430	          0.06878612	          0.01560267	          0.12007839	          0.05762426	          0.01000128	          0.14726316	          0.01000089	          0.01000025	          0.64529560	
          0.68104137	         -5.23431402	          1.65848062	         -5.31694378	          0.76648726	          0.92835759	          0.00663223	        -10.89601693	         -3.33884586	        -10.20964019	        -19.70691504	          1.72806320	         41.91686209	         29.32603207	         -0.24624313	         -9.76371510	        -15.18954891	         -0.86446120	          0.13879418	         -4.01585984	         -2.37965065	          9.78420559	          0.24354595	          0.01000066	          0.01000141	          0.03078703	          0.06489473	          0.08783994	          0.12747495	          0.01000084	          0.25564322	          0.01000272	          0.01000036	          0.09224926	          0.18193958	          0.01000050	          0.13024259	          0.07366116	          0.01000213	          0.17364118	          0.17572357	          0.06901606	          0.01293919	          0.13818738	          0.04776648	          0.01000173	          0.22002153	          0.01000362	          0.01000134	          0.57939888	
          0.69342394	         -5.24312823	          1.76037393	         -5.18319428	          0.78300513	          0.92912952	          0.00538774	         -9.94785669	         -3.92952495	        -10.66891609	        -22.94127738	         -0.23784066	         43.01667733	         28.75766820	         -0.01718590	         -9.80744644	        -16.13563212	          0.05373899	          0.28728803	         -3.76752701	         -2.89433363	          9.99218084	          0.25502809	          0.01000084	          0.01000175	          0.02552028	          0.16619996	          0.11792964	          0.11439078	          0.01000054	          0.21191058	          0.01000218	          0.01000023	          0.07646819	          0.15081503	          0.01000072	          0.12047504	          0.06105994	          0.01000231	          0.19553343	          0.16963531	          0.07014617	          0.01073763	          0.11568531	          0.03959507	          0.01000137	          0.25626149	          0.01000393	          0.01000100	          0.48838076	
          0.70580651	         -5.24737572	          1.84290610	         -5.03342409	          0.79898582	          0.93083071	          0.00409716	         -8.61818618	         -4.58352383	        -11.15297730	        -26.72467638	         -2.30398155	         43.00883516	         28.05985239	          0.23560857	         -9.75716391	        -16.81643137	          1.09975034	          0.60861200	         -3.58031595	         -3.37556171	         10.15167615	          0.24879096	          0.01000109	          0.01000203	          0.02115453	          0.22435069	          0.12590800	          0.09493687	          0.01000047	          0.17565924	          0.01000227	          0.01000020	          0.06338683	          0.12501497	          0.01000037	          0.11934663	          0.05061442	          0.01000250	          0.19741810	          0.16945760	          0.07446809	          0.01209242	          0.09589792	          0.03282156	          0.01000118	          0.25927798	          0.01000289	          0.01000069	          0.40798784	
          0.71818908	         -5.24832995	          1.86968463	         -4.86415625	          0.81444474	          0.93333310	          0.00280100	         -6.95560658	         -5.26352606	        -11.64260844	        -30.91611678	         -4.59604205	         41.92847803	         27.19213327	          0.46986047	         -9.65770517	        -17.11491354	          1.98387734	          1.02389389	         -3.45332420	         -3.78532902	         10.25681644	          0.24077859	          0.01000078	          0.01000220	          0.01753564	          0.24334561	          0.15137524	          0.10484810	          0.01000033	          0.14560945	          0.01000201	          0.01000014	          0.05254334	          0.10362855	          0.01000119	          0.10928609	          0.04195583	          0.01000254	          0.18547497	          0.14551159	          0.07887082	          0.01008640	          0.07949514	          0.02720680	          0.01000121	          0.24347646	          0.01000235	          0.01000068	          0.35419192	
          0.73057165	         -5.24496668	          1.81866091	         -4.67478614	          0.82940760	          0.93641011	          0.00152233	         -5.03115331	         -5.94034137	        -12.10912102	        -35.35244048	         -7.04190241	         39.64536254	         26.17949761	          0.65269890	         -9.51649680	        -17.07710261	          2.65992421	          1.45630675	         -3.38696380	         -4.09954019	         10.30544867	          0.24360218	          0.02043929	          0.01000326	          0.01453587	          0.20172142	          0.16679990	          0.08692303	          0.01000100	          0.12070031	          0.01000206	          0.01000016	          0.04355499	          0.08590073	          0.06445417	          0.09059159	          0.03477846	          0.01000331	          0.17350460	          0.12062614	          0.08089396	          0.01010411	          0.06589809	          0.02255257	          0.01000113	          0.21104014	          0.01000314	          0.01000090	          0.32063202	
